<svg width="40" height="40" viewBox="0 0 40 40" fill="none" xmlns="http://www.w3.org/2000/svg">
<path d="M34.0156 9.51562L39.2656 4.26562L35.7344 0.734375L30.4766 5.98438C27.5625 3.79687 23.9297 2.5 20 2.5C10.3359 2.5 2.5 10.3359 2.5 20C2.5 23.9297 3.79687 27.5625 5.98438 30.4766L0.734375 35.7344L4.27344 39.2734L9.52344 34.0234C12.4453 36.2109 16.0703 37.5078 20 37.5078C29.6641 37.5078 37.5 29.6719 37.5 20.0078C37.5 16.0781 36.2031 12.4453 34.0156 9.53125V9.51562ZM26.8906 9.57031L9.57031 26.8906C8.26562 24.9141 7.5 22.5469 7.5 20C7.5 13.0938 13.0938 7.5 20 7.5C22.5469 7.5 24.9141 8.26562 26.8906 9.57031ZM13.1016 30.4297L30.4297 13.1094C31.7344 15.0859 32.5 17.4531 32.5 20C32.5 26.9062 26.9062 32.5 20 32.5C17.4531 32.5 15.0859 31.7344 13.1094 30.4297H13.1016Z" fill="black"/>
</svg>
