<svg width="13" height="14" viewBox="0 0 13 14" fill="none" xmlns="http://www.w3.org/2000/svg">
<path d="M8.90039 1.64062C8.44648 1.64062 8.01172 1.82109 7.6918 2.14102L2.50469 7.32812C1.95234 7.88047 1.64062 8.63242 1.64062 9.41172C1.64062 11.0414 2.95859 12.3594 4.58828 12.3594C5.37031 12.3594 6.11953 12.0477 6.67188 11.4953L11.0523 7.11484L12.1352 8.19766L7.75469 12.5781C6.91523 13.4176 5.775 13.8906 4.58828 13.8906C2.11367 13.8906 0.109375 11.8863 0.109375 9.41172C0.109375 8.225 0.582422 7.08477 1.42188 6.24531L6.60898 1.0582C7.21602 0.451172 8.0418 0.109375 8.90039 0.109375C10.6887 0.109375 12.1406 1.56133 12.1406 3.34961C12.1406 4.2082 11.7988 5.03398 11.1918 5.64102L6.15508 10.6777C5.78047 11.0523 5.26914 11.2656 4.73867 11.2656C3.63125 11.2656 2.73438 10.3688 2.73438 9.26133C2.73438 8.73086 2.94492 8.21953 3.32227 7.84492L7.77109 3.39609L8.85391 4.47891L4.40508 8.92773C4.31758 9.01523 4.26562 9.13555 4.26562 9.26133C4.26562 9.52109 4.47617 9.73438 4.73867 9.73438C4.86445 9.73438 4.98477 9.68516 5.07227 9.59492L10.109 4.5582C10.4289 4.23828 10.6094 3.80352 10.6094 3.34961C10.6094 2.40625 9.84375 1.64062 8.90039 1.64062Z" fill="black" fill-opacity="0.56"/>
</svg>
