<svg width="15" height="12" viewBox="0 0 15 12" fill="none" xmlns="http://www.w3.org/2000/svg">
<path d="M3.375 11.25H0V7.875C0 6.40547 0.939844 5.15625 2.25 4.69219V4.5C2.25 2.42812 3.92812 0.75 6 0.75C7.38984 0.75 8.60156 1.50469 9.25078 2.62969C9.60703 2.39062 10.0383 2.25 10.5 2.25C11.7422 2.25 12.75 3.25781 12.75 4.5V5.34375C14.0437 5.67656 15 6.85078 15 8.25V11.25H12H3.375ZM5.22656 7.33594L7.10156 9.21094L7.5 9.60938L7.89844 9.21094L9.77344 7.33594L10.1719 6.9375L9.375 6.14297L8.97656 6.54141L8.0625 7.45547V4.3125V3.75H6.9375V4.3125V7.45547L6.02344 6.54141L5.625 6.14297L4.83047 6.9375L5.22891 7.33594H5.22656Z" fill="#2CAA47"/>
</svg>
