<svg width="11" height="14" viewBox="0 0 11 14" fill="none" xmlns="http://www.w3.org/2000/svg">
<path d="M0 0.875H0.875H2.1875H2.625H6.125C8.0582 0.875 9.625 2.4418 9.625 4.375C9.625 5.23086 9.31602 6.01836 8.80469 6.62539C9.81914 7.23789 10.5 8.35078 10.5 9.625C10.5 11.5582 8.9332 13.125 7 13.125H2.625H2.1875H0.875H0V11.375H0.875H1.3125V7V2.625H0.875H0V0.875ZM6.125 6.125C7.09023 6.125 7.875 5.34023 7.875 4.375C7.875 3.40977 7.09023 2.625 6.125 2.625H3.0625V6.125H6.125ZM3.0625 7.875V11.375H7C7.96523 11.375 8.75 10.5902 8.75 9.625C8.75 8.65977 7.96523 7.875 7 7.875H6.125H3.0625Z" fill="#1F1F1F"/>
</svg>
