<svg width="14" height="14" viewBox="0 0 14 14" fill="none" xmlns="http://www.w3.org/2000/svg">
<path d="M0.4375 2.625C0.4375 2.45264 0.471449 2.28197 0.537408 2.12273C0.603367 1.96349 0.700045 1.8188 0.821922 1.69692C0.943799 1.57505 1.08849 1.47837 1.24773 1.41241C1.40697 1.34645 1.57764 1.3125 1.75 1.3125C1.92236 1.3125 2.09303 1.34645 2.25227 1.41241C2.41151 1.47837 2.5562 1.57505 2.67808 1.69692C2.79995 1.8188 2.89663 1.96349 2.96259 2.12273C3.02855 2.28197 3.0625 2.45264 3.0625 2.625C3.0625 2.79736 3.02855 2.96803 2.96259 3.12727C2.89663 3.28651 2.79995 3.4312 2.67808 3.55308C2.5562 3.67495 2.41151 3.77163 2.25227 3.83759C2.09303 3.90355 1.92236 3.9375 1.75 3.9375C1.57764 3.9375 1.40697 3.90355 1.24773 3.83759C1.08849 3.77163 0.943799 3.67495 0.821922 3.55308C0.700045 3.4312 0.603367 3.28651 0.537408 3.12727C0.471449 2.96803 0.4375 2.79736 0.4375 2.625ZM1.75 5.6875C2.0981 5.6875 2.43194 5.82578 2.67808 6.07192C2.92422 6.31806 3.0625 6.6519 3.0625 7C3.0625 7.3481 2.92422 7.68194 2.67808 7.92808C2.43194 8.17422 2.0981 8.3125 1.75 8.3125C1.4019 8.3125 1.06806 8.17422 0.821922 7.92808C0.575781 7.68194 0.4375 7.3481 0.4375 7C0.4375 6.6519 0.575781 6.31806 0.821922 6.07192C1.06806 5.82578 1.4019 5.6875 1.75 5.6875ZM1.75 10.0625C2.0981 10.0625 2.43194 10.2008 2.67808 10.4469C2.92422 10.6931 3.0625 11.0269 3.0625 11.375C3.0625 11.7231 2.92422 12.0569 2.67808 12.3031C2.43194 12.5492 2.0981 12.6875 1.75 12.6875C1.4019 12.6875 1.06806 12.5492 0.821922 12.3031C0.575781 12.0569 0.4375 11.7231 0.4375 11.375C0.4375 11.0269 0.575781 10.6931 0.821922 10.4469C1.06806 10.2008 1.4019 10.0625 1.75 10.0625ZM5.6875 1.3125H12.25V3.9375H5.6875L3.9375 2.625L5.6875 1.3125ZM3.9375 7L5.6875 5.6875H14V8.3125H5.6875L3.9375 7ZM3.9375 11.375L5.6875 10.0625H12.25V12.6875H5.6875L3.9375 11.375Z" fill="black" fill-opacity="0.56"/>
</svg>
