<svg width="16" height="16" viewBox="0 0 16 16" fill="none" xmlns="http://www.w3.org/2000/svg">
<path d="M10.4716 14.1946C10.3465 14.3196 10.177 14.3898 10.0002 14.3898C9.82345 14.3898 9.65391 14.3196 9.52889 14.1946L8.47156 13.1372C8.34658 13.0122 8.27637 12.8427 8.27637 12.6659C8.27637 12.4891 8.34658 12.3196 8.47156 12.1946L12.1956 8.47058C12.3206 8.3456 12.4901 8.27539 12.6669 8.27539C12.8437 8.27539 13.0132 8.3456 13.1382 8.47058L14.1956 9.52792C14.3205 9.65293 14.3907 9.82247 14.3907 9.99925C14.3907 10.176 14.3205 10.3456 14.1956 10.4706L10.4716 14.1946Z" stroke="#3F3F46" stroke-width="1.33333" stroke-linecap="round" stroke-linejoin="round"/>
<path d="M11.9997 8.66732L11.083 4.08466C11.0581 3.95997 10.998 3.84502 10.9099 3.75336C10.8218 3.6617 10.7093 3.59715 10.5857 3.56732L2.15635 1.35266C2.0453 1.32581 1.92921 1.32795 1.81923 1.35887C1.70925 1.38979 1.60906 1.44846 1.52827 1.52925C1.44748 1.61003 1.38882 1.71022 1.35789 1.82021C1.32697 1.93019 1.32483 2.04627 1.35168 2.15732L3.56635 10.5867C3.59617 10.7103 3.66072 10.8227 3.75239 10.9109C3.84405 10.999 3.959 11.0591 4.08368 11.084L8.66635 12.0007" stroke="#3F3F46" stroke-width="1.33333" stroke-linecap="round" stroke-linejoin="round"/>
<path d="M1.5332 1.5332L6.39054 6.39054" stroke="#3F3F46" stroke-width="1.33333" stroke-linecap="round" stroke-linejoin="round"/>
<path d="M7.33333 8.66667C8.06971 8.66667 8.66667 8.06971 8.66667 7.33333C8.66667 6.59695 8.06971 6 7.33333 6C6.59695 6 6 6.59695 6 7.33333C6 8.06971 6.59695 8.66667 7.33333 8.66667Z" stroke="#3F3F46" stroke-width="1.33333" stroke-linecap="round" stroke-linejoin="round"/>
</svg>
