<svg width="16" height="16" viewBox="0 0 16 16" fill="none" xmlns="http://www.w3.org/2000/svg">
<path d="M7.99967 4.66732C8.92015 4.66732 9.66634 3.92113 9.66634 3.00065C9.66634 2.08018 8.92015 1.33398 7.99967 1.33398C7.0792 1.33398 6.33301 2.08018 6.33301 3.00065C6.33301 3.92113 7.0792 4.66732 7.99967 4.66732Z" stroke="#3F3F46" stroke-width="1.33333" stroke-linecap="round" stroke-linejoin="round"/>
<path d="M6.8002 4.19922L4.2002 6.79922" stroke="#3F3F46" stroke-width="1.33333" stroke-linecap="round" stroke-linejoin="round"/>
<path d="M2.99967 9.66732C3.92015 9.66732 4.66634 8.92113 4.66634 8.00065C4.66634 7.08018 3.92015 6.33398 2.99967 6.33398C2.0792 6.33398 1.33301 7.08018 1.33301 8.00065C1.33301 8.92113 2.0792 9.66732 2.99967 9.66732Z" stroke="#3F3F46" stroke-width="1.33333" stroke-linecap="round" stroke-linejoin="round"/>
<path d="M4.66699 8H11.3337" stroke="#3F3F46" stroke-width="1.33333" stroke-linecap="round" stroke-linejoin="round"/>
<path d="M12.9997 9.66732C13.9201 9.66732 14.6663 8.92113 14.6663 8.00065C14.6663 7.08018 13.9201 6.33398 12.9997 6.33398C12.0792 6.33398 11.333 7.08018 11.333 8.00065C11.333 8.92113 12.0792 9.66732 12.9997 9.66732Z" stroke="#3F3F46" stroke-width="1.33333" stroke-linecap="round" stroke-linejoin="round"/>
<path d="M9.2002 11.7992L11.8002 9.19922" stroke="#3F3F46" stroke-width="1.33333" stroke-linecap="round" stroke-linejoin="round"/>
<path d="M7.99967 14.6673C8.92015 14.6673 9.66634 13.9211 9.66634 13.0007C9.66634 12.0802 8.92015 11.334 7.99967 11.334C7.0792 11.334 6.33301 12.0802 6.33301 13.0007C6.33301 13.9211 7.0792 14.6673 7.99967 14.6673Z" stroke="#3F3F46" stroke-width="1.33333" stroke-linecap="round" stroke-linejoin="round"/>
</svg>
