<svg width="16" height="16" viewBox="0 0 16 16" fill="none" xmlns="http://www.w3.org/2000/svg">
<path d="M13.9997 8.00092C14.3677 8.00092 14.6697 7.70159 14.633 7.33559C14.4793 5.80504 13.8011 4.37472 12.7132 3.28714C11.6254 2.19955 10.1949 1.52161 8.66436 1.36826C8.29769 1.33159 7.99902 1.63359 7.99902 2.00159V7.33492C7.99902 7.51173 8.06926 7.6813 8.19429 7.80633C8.31931 7.93135 8.48888 8.00159 8.66569 8.00159L13.9997 8.00092Z" stroke="#3F3F46" stroke-width="1.33333" stroke-linecap="round" stroke-linejoin="round"/>
<path d="M14.1399 10.5934C13.7158 11.5964 13.0525 12.4802 12.2079 13.1676C11.3633 13.855 10.3631 14.325 9.2949 14.5366C8.22668 14.7481 7.12289 14.6948 6.08004 14.3813C5.03719 14.0677 4.08703 13.5034 3.31262 12.7378C2.53822 11.9722 1.96315 11.0286 1.6377 9.98935C1.31225 8.95015 1.24632 7.84704 1.44568 6.77647C1.64503 5.70591 2.10361 4.70047 2.78131 3.84807C3.45901 2.99567 4.3352 2.32226 5.33328 1.88672" stroke="#3F3F46" stroke-width="1.33333" stroke-linecap="round" stroke-linejoin="round"/>
</svg>
