<svg width="16" height="16" viewBox="0 0 16 16" fill="none" xmlns="http://www.w3.org/2000/svg">
<path d="M13.5 5.5H2.5C2.225 5.5 2 5.275 2 5C2 4.725 2.225 4.5 2.5 4.5H13.5C13.775 4.5 14 4.725 14 5C14 5.275 13.775 5.5 13.5 5.5ZM13.5 8.5H2.5C2.225 8.5 2 8.275 2 8C2 7.725 2.225 7.5 2.5 7.5H13.5C13.775 7.5 14 7.725 14 8C14 8.275 13.775 8.5 13.5 8.5ZM13.5 11.5H2.5C2.225 11.5 2 11.275 2 11C2 10.725 2.225 10.5 2.5 10.5H13.5C13.775 10.5 14 10.725 14 11C14 11.275 13.775 11.5 13.5 11.5Z" fill="black"/>
</svg>
